<svg xmlns="http://www.w3.org/2000/svg" viewBox="0 0 444.78 400.36"><defs><style>.cls-1{isolation:isolate;}.cls-2{fill:#cdcccc;}.cls-3{fill:#95c11f;}.cls-4{fill:#fbbd32;}.cls-5{fill:#e30613;}.cls-6{fill:#8e8f8f;mix-blend-mode:multiply;}.cls-7{fill:#333;}.cls-8{fill:#1d1d1b;}</style></defs><g class="cls-1"><g id="Camada_1" data-name="Camada 1"><circle class="cls-2" cx="223.06" cy="208.54" r="54.32"/><path class="cls-3" d="M30.64,289.4a207.51,207.51,0,0,1-.83-160.3C73.32,23.24,194.06-27.56,300.06,15.09l-32.94,83.4a120.08,120.08,0,0,0-156.34,156.7Z"/><path class="cls-4" d="M267.6,98.67l-.48-.18,32.94-83.4c.51.19,1,.39,1.49.6A207.57,207.57,0,0,1,414.71,128.47l-81.89,35.14A119.7,119.7,0,0,0,267.6,98.67Z"/><path class="cls-5" d="M415,287.42,333.59,254a119.64,119.64,0,0,0-.77-90.36l81.89-35.14A207.53,207.53,0,0,1,415,287.42Z"/><path class="cls-6" d="M198.21,217.12a24.84,24.84,0,1,0,8.89-26.55c-.47.35-.92.73-1.36,1.11L39.66,162.24Z"/><path class="cls-7" d="M198.06,211.82A24.84,24.84,0,1,0,207,185.27c-.47.35-.92.72-1.36,1.11L39.51,156.93Z"/><path class="cls-8" d="M2.08,399.81a3.61,3.61,0,0,1-1.55-1.59A5.51,5.51,0,0,1,0,395.71v-3.42a5.52,5.52,0,0,1,.53-2.52,3.66,3.66,0,0,1,1.55-1.59,5,5,0,0,1,2.43-.55,4.29,4.29,0,0,1,2.1.51,4,4,0,0,1,1.53,1.47A6.5,6.5,0,0,1,9,391.93H6.54a3.12,3.12,0,0,0-.42-1.05,2,2,0,0,0-.7-.67,1.84,1.84,0,0,0-.91-.23,2.19,2.19,0,0,0-1.12.27,1.71,1.71,0,0,0-.71.79,2.93,2.93,0,0,0-.24,1.25v3.42A2.92,2.92,0,0,0,2.68,397a1.74,1.74,0,0,0,.71.78,2.19,2.19,0,0,0,1.12.27,1.93,1.93,0,0,0,.93-.22,2,2,0,0,0,.69-.67,2.9,2.9,0,0,0,.41-1.06H9a6.38,6.38,0,0,1-.85,2.33,4.19,4.19,0,0,1-1.52,1.47,4.29,4.29,0,0,1-2.1.51A5.07,5.07,0,0,1,2.08,399.81Z"/><path class="cls-8" d="M22.19,387.75h2.35v12.48H22.19Zm.93,5.2h4.34a1.17,1.17,0,0,0,.64-.18,1.21,1.21,0,0,0,.42-.52,2,2,0,0,0,.16-.77,1.86,1.86,0,0,0-.15-.77,1.16,1.16,0,0,0-.43-.52,1.12,1.12,0,0,0-.64-.18H23.12v-2.26h4.53a3.46,3.46,0,0,1,1.81.46,3.19,3.19,0,0,1,1.21,1.31,4.68,4.68,0,0,1,0,3.92,3.15,3.15,0,0,1-1.22,1.31,3.44,3.44,0,0,1-1.8.46H23.12Zm2.63,1.87,2.51-.39,3.36,5.8H28.77Z"/><path class="cls-8" d="M44.87,387.76h2.35v12.47H44.87Zm.85,0h7.51V390H45.72Zm0,5.14h6.56v2.27H45.72Zm0,5.06h7.51v2.27H45.72Z"/><path class="cls-8" d="M66.61,387.76H69v12.47H66.61ZM67.79,398h3a2.61,2.61,0,0,0,1.8-.56,2,2,0,0,0,.63-1.57v-3.67a2,2,0,0,0-.63-1.58,2.66,2.66,0,0,0-1.8-.56h-3v-2.26h2.94a6.13,6.13,0,0,1,2.66.52,3.68,3.68,0,0,1,1.68,1.53,4.82,4.82,0,0,1,.58,2.42v3.53a4.78,4.78,0,0,1-.56,2.35,3.75,3.75,0,0,1-1.66,1.56,6,6,0,0,1-2.71.56H67.79Z"/><path class="cls-8" d="M91.46,400.23H89V387.76h2.43Z"/><path class="cls-8" d="M104.24,387.76h9.15V390h-9.15Zm3.4,1H110v11.45h-2.35Z"/><path class="cls-8" d="M143.78,400.17a7.5,7.5,0,0,1-1.6-.52,5.85,5.85,0,0,1-1.34-.84l1.09-1.94a5.26,5.26,0,0,0,1.66.92,6.07,6.07,0,0,0,1.94.32,3.41,3.41,0,0,0,1.78-.39,1.23,1.23,0,0,0,.63-1.1h0a1.08,1.08,0,0,0-.28-.79,1.6,1.6,0,0,0-.74-.43,10.19,10.19,0,0,0-1.16-.25h-.1l-.18,0a12.1,12.1,0,0,1-2.08-.49,3.15,3.15,0,0,1-1.4-1,3.42,3.42,0,0,1-.57-2.11h0a3.79,3.79,0,0,1,.54-2.06,3.4,3.4,0,0,1,1.57-1.31,6.14,6.14,0,0,1,2.48-.45,6.46,6.46,0,0,1,1.37.15,8.44,8.44,0,0,1,1.37.45,7.86,7.86,0,0,1,1.27.7l-1,2a6.27,6.27,0,0,0-1.5-.77,4.64,4.64,0,0,0-1.51-.27,3.35,3.35,0,0,0-1.67.35,1.12,1.12,0,0,0-.59,1h0a1.14,1.14,0,0,0,.31.85,1.73,1.73,0,0,0,.76.46,11.55,11.55,0,0,0,1.28.31h.07l.07,0,.1,0,.09,0a10.17,10.17,0,0,1,2,.56,3.09,3.09,0,0,1,1.32,1.06,3.33,3.33,0,0,1,.54,2h0a3.62,3.62,0,0,1-.56,2,3.45,3.45,0,0,1-1.63,1.3,6.55,6.55,0,0,1-2.56.45A7.82,7.82,0,0,1,143.78,400.17Z"/><path class="cls-8" d="M165.13,399.81a3.59,3.59,0,0,1-1.54-1.59,5.51,5.51,0,0,1-.53-2.51v-3.42a5.52,5.52,0,0,1,.53-2.52,3.64,3.64,0,0,1,1.54-1.59,5,5,0,0,1,2.44-.55,4.29,4.29,0,0,1,2.1.51,4,4,0,0,1,1.53,1.47,6.5,6.5,0,0,1,.84,2.32H169.6a3.12,3.12,0,0,0-.42-1.05,2.22,2.22,0,0,0-.7-.67,1.84,1.84,0,0,0-.91-.23,2.22,2.22,0,0,0-1.13.27,1.75,1.75,0,0,0-.7.79,2.79,2.79,0,0,0-.25,1.25v3.42a2.77,2.77,0,0,0,.25,1.24,1.77,1.77,0,0,0,.7.78,2.22,2.22,0,0,0,1.13.27,1.87,1.87,0,0,0,.92-.22,2,2,0,0,0,.7-.67,3.09,3.09,0,0,0,.41-1.06H172a6.56,6.56,0,0,1-.85,2.33,4.19,4.19,0,0,1-1.52,1.47,4.29,4.29,0,0,1-2.1.51A5.14,5.14,0,0,1,165.13,399.81Z"/><path class="cls-8" d="M187,399.78a3.94,3.94,0,0,1-1.6-1.61,5,5,0,0,1-.56-2.41v-3.53a5.08,5.08,0,0,1,.56-2.42,4,4,0,0,1,1.6-1.61,5.3,5.3,0,0,1,4.78,0,4,4,0,0,1,1.6,1.61,5,5,0,0,1,.56,2.42v3.53a4.93,4.93,0,0,1-.56,2.41,3.94,3.94,0,0,1-1.6,1.61,5.21,5.21,0,0,1-4.78,0Zm3.51-2a1.87,1.87,0,0,0,.74-.76,2.5,2.5,0,0,0,.26-1.15v-3.65a2.47,2.47,0,0,0-.26-1.15,1.89,1.89,0,0,0-.74-.77,2.26,2.26,0,0,0-1.12-.27,2.23,2.23,0,0,0-1.11.27,1.92,1.92,0,0,0-.75.77,2.47,2.47,0,0,0-.26,1.15v3.65a2.5,2.5,0,0,0,.26,1.15,1.89,1.89,0,0,0,.75.76,2.23,2.23,0,0,0,1.11.27A2.26,2.26,0,0,0,190.49,397.73Z"/><path class="cls-8" d="M207.48,387.75h2.35v12.48h-2.35Zm.93,5.2h4.34a1.17,1.17,0,0,0,.64-.18,1.21,1.21,0,0,0,.42-.52,2,2,0,0,0,.16-.77,1.86,1.86,0,0,0-.15-.77,1.16,1.16,0,0,0-.43-.52,1.12,1.12,0,0,0-.64-.18h-4.34v-2.26h4.53a3.46,3.46,0,0,1,1.81.46,3.19,3.19,0,0,1,1.21,1.31,4.68,4.68,0,0,1,0,3.92,3.15,3.15,0,0,1-1.22,1.31,3.44,3.44,0,0,1-1.8.46h-4.53Zm2.63,1.87,2.51-.39,3.36,5.8h-2.85Z"/><path class="cls-8" d="M230.16,387.76h2.35v12.47h-2.35Zm.85,0h7.5V390H231Zm0,5.14h6.56v2.27H231Zm0,5.06h7.5v2.27H231Z"/><path class="cls-8" d="M271.42,387.76h1.49l4.77,12.47h-2.53l-3-8.52-3,8.52h-2.53ZM268.94,396h6.56v2.26h-6.56Z"/><path class="cls-8" d="M290.46,387.76h2.87l4.64,9.55-.2.22v-9.77H300v12.46h-2.89l-4.62-9.41.21-.22v9.63h-2.25Z"/><path class="cls-8" d="M317.39,387.76h1.49l4.77,12.47h-2.53l-3-8.52-3,8.52h-2.53ZM314.91,396h6.56v2.26h-6.56Z"/><path class="cls-8" d="M336.43,387.76h2.35v12.47h-2.35Zm1.05,10.2h7.3v2.27h-7.3Z"/><path class="cls-8" d="M361.36,395.42v4.81H359v-4.81l-3.67-7.66h2.46l2.38,5.37,2.38-5.37H365Z"/><path class="cls-8" d="M376.52,387.76h9.14V390h-9.14Zm3.4,1h2.35v11.45h-2.35Z"/><path class="cls-8" d="M400.54,400.23H398.1V387.76h2.44Z"/><path class="cls-8" d="M416.16,399.81a3.64,3.64,0,0,1-1.54-1.59,5.51,5.51,0,0,1-.53-2.51v-3.42a5.52,5.52,0,0,1,.53-2.52,3.7,3.7,0,0,1,1.54-1.59,5,5,0,0,1,2.44-.55,4.29,4.29,0,0,1,2.1.51,4,4,0,0,1,1.53,1.47,6.5,6.5,0,0,1,.84,2.32h-2.44a3.12,3.12,0,0,0-.42-1.05,2.22,2.22,0,0,0-.7-.67,1.84,1.84,0,0,0-.91-.23,2.16,2.16,0,0,0-1.12.27,1.71,1.71,0,0,0-.71.79,2.93,2.93,0,0,0-.25,1.25v3.42a2.91,2.91,0,0,0,.25,1.24,1.74,1.74,0,0,0,.71.78,2.16,2.16,0,0,0,1.12.27,1.93,1.93,0,0,0,.93-.22,2,2,0,0,0,.69-.67,2.9,2.9,0,0,0,.41-1.06h2.44a6.38,6.38,0,0,1-.85,2.33,4.19,4.19,0,0,1-1.52,1.47,4.29,4.29,0,0,1-2.1.51A5.14,5.14,0,0,1,416.16,399.81Z"/><path class="cls-8" d="M438.28,400.17a7.5,7.5,0,0,1-1.6-.52,6.14,6.14,0,0,1-1.35-.84l1.09-1.94a5.31,5.31,0,0,0,1.67.92,6.07,6.07,0,0,0,1.94.32,3.41,3.41,0,0,0,1.78-.39,1.23,1.23,0,0,0,.63-1.1h0a1.08,1.08,0,0,0-.28-.79,1.6,1.6,0,0,0-.74-.43,10.19,10.19,0,0,0-1.16-.25h-.1l-.19,0a12.2,12.2,0,0,1-2.07-.49,3.1,3.1,0,0,1-1.4-1,3.42,3.42,0,0,1-.57-2.11h0a3.79,3.79,0,0,1,.54-2.06,3.4,3.4,0,0,1,1.57-1.31,6.14,6.14,0,0,1,2.48-.45,6.53,6.53,0,0,1,1.37.15,8.44,8.44,0,0,1,1.37.45,7.86,7.86,0,0,1,1.27.7l-1,2a6.27,6.27,0,0,0-1.5-.77,4.68,4.68,0,0,0-1.51-.27,3.32,3.32,0,0,0-1.67.35,1.12,1.12,0,0,0-.59,1h0a1.14,1.14,0,0,0,.31.85,1.73,1.73,0,0,0,.76.46,11.55,11.55,0,0,0,1.28.31h.07l.07,0,.09,0,.1,0a10.17,10.17,0,0,1,2,.56,3.09,3.09,0,0,1,1.32,1.06,3.33,3.33,0,0,1,.54,2h0a3.62,3.62,0,0,1-.56,2,3.5,3.5,0,0,1-1.63,1.3,6.55,6.55,0,0,1-2.56.45A7.82,7.82,0,0,1,438.28,400.17Z"/><polygon class="cls-5" points="3.92 315.69 0 315.69 0 372.73 8 372.73 8 348.72 31.58 348.72 31.58 341.11 8 341.11 8 323.3 35.9 323.3 35.9 315.69 8 315.69 3.92 315.69"/><rect class="cls-5" x="45.71" y="315.69" width="8" height="57.04"/><path class="cls-5" d="M76.31,329.32a11.21,11.21,0,0,1,15.06-5.27,12,12,0,0,1,4.1,3.23A12.68,12.68,0,0,1,98,332.05h8.2a22.32,22.32,0,0,0-3.74-8.91,19.09,19.09,0,0,0-6.89-5.94,19.57,19.57,0,0,0-9-2.1,20.11,20.11,0,0,0-10.42,2.65,17.89,17.89,0,0,0-7,7.47,24.19,24.19,0,0,0-2.47,11.18v15.66a24.19,24.19,0,0,0,2.47,11.18,17.84,17.84,0,0,0,7,7.45,20.29,20.29,0,0,0,10.42,2.63,19.5,19.5,0,0,0,9-2.1,19.23,19.23,0,0,0,6.91-5.94,22.2,22.2,0,0,0,3.76-8.91H98a12.45,12.45,0,0,1-2.49,4.95,11.4,11.4,0,0,1-4.08,3.13,11.59,11.59,0,0,1-4.88,1.06,11.18,11.18,0,0,1-6.12-1.66,11,11,0,0,1-4.08-4.73,16.28,16.28,0,0,1-1.46-7.06V336.4A16.25,16.25,0,0,1,76.31,329.32Z"/><polygon class="cls-5" points="149.16 340.84 124.76 340.84 124.76 315.69 116.75 315.69 116.75 372.73 124.76 372.73 124.76 348.45 149.16 348.45 149.16 372.73 157.16 372.73 157.16 315.69 149.16 315.69 149.16 340.84"/><path class="cls-5" d="M205.26,372.73h8.63l-21-57H186l-21,57h8.63l4.3-12.51h23Zm-24.7-20.12,8.89-25.9,8.9,25.9Z"/><polygon class="cls-3" points="232.49 315.69 221.74 315.69 221.74 372.73 226.53 372.73 232.49 372.73 259.95 372.73 259.95 362.38 232.49 362.38 232.49 315.69"/><rect class="cls-3" x="267.01" y="315.69" width="11.14" height="57.04"/><polygon class="cls-3" points="314.96 354.13 304.09 315.69 289.93 315.69 289.93 372.73 299.69 372.73 299.69 332.98 310.21 366.38 319.7 366.38 330.22 332.22 330.22 372.73 339.99 372.73 339.99 315.69 325.82 315.69 314.96 354.13"/><path class="cls-3" d="M384.81,317.87a19.5,19.5,0,0,0-9.4-2.18H352.54v57h10.75V350.6h12.12a19.72,19.72,0,0,0,9.4-2.15,15.49,15.49,0,0,0,6.3-6.1,20,20,0,0,0,0-18.35A15.5,15.5,0,0,0,384.81,317.87Zm-3.43,19a6.05,6.05,0,0,1-2.3,2.5,6.53,6.53,0,0,1-3.39.88h-12.4v-14.2h12.4a6.54,6.54,0,0,1,3.43.88,5.83,5.83,0,0,1,2.27,2.51,8.28,8.28,0,0,1,.81,3.75A7.94,7.94,0,0,1,381.38,336.87Z"/><path class="cls-3" d="M432.42,372.73H444l-21.81-57h-6.83l-21.81,57h11.57l3.21-9.14h20.89Zm-20.48-19.5,6.82-19.46,6.82,19.46Z"/></g></g></svg>